<svg xmlns="http://www.w3.org/2000/svg" viewBox="0 0 64 64" fill="none">
  <defs>
    <linearGradient id="bg" x1="10" y1="6" x2="54" y2="58" gradientUnits="userSpaceOnUse">
      <stop offset="0" stop-color="#071019" />
      <stop offset="1" stop-color="#111827" />
    </linearGradient>
    <linearGradient id="ring" x1="12" y1="10" x2="52" y2="54" gradientUnits="userSpaceOnUse">
      <stop offset="0" stop-color="#00e5ff" />
      <stop offset="1" stop-color="#7c3aed" />
    </linearGradient>
    <linearGradient id="brainStroke" x1="18" y1="14" x2="48" y2="48" gradientUnits="userSpaceOnUse">
      <stop offset="0" stop-color="#8ff7ff" />
      <stop offset="0.55" stop-color="#00e5ff" />
      <stop offset="1" stop-color="#7c3aed" />
    </linearGradient>
    <linearGradient id="brainFill" x1="18" y1="16" x2="42" y2="42" gradientUnits="userSpaceOnUse">
      <stop offset="0" stop-color="#00e5ff" stop-opacity="0.22" />
      <stop offset="1" stop-color="#7c3aed" stop-opacity="0.08" />
    </linearGradient>
    <filter id="glow" x="-40%" y="-40%" width="180%" height="180%">
      <feGaussianBlur stdDeviation="1.8" result="blur" />
      <feMerge>
        <feMergeNode in="blur" />
        <feMergeNode in="SourceGraphic" />
      </feMerge>
    </filter>
  </defs>

  <rect x="4" y="4" width="56" height="56" rx="16" fill="url(#bg)" />
  <rect x="4.75" y="4.75" width="54.5" height="54.5" rx="15.25" stroke="url(#ring)" stroke-opacity="0.35" stroke-width="1.5" />
  <circle cx="24" cy="18" r="18" fill="#00e5ff" fill-opacity="0.08" />
  <circle cx="48" cy="50" r="18" fill="#7c3aed" fill-opacity="0.08" />

  <g transform="translate(12 12) scale(1.65)" filter="url(#glow)">
    <path
      d="M12 5a3 3 0 1 0-5.997.125 4 4 0 0 0-2.526 5.77 4 4 0 0 0 .556 6.588A4 4 0 1 0 12 18Z"
      fill="url(#brainFill)"
      stroke="url(#brainStroke)"
      stroke-width="1.7"
      stroke-linecap="round"
      stroke-linejoin="round"
    />
    <path d="M9 13a4.5 4.5 0 0 0 3-4" stroke="url(#brainStroke)" stroke-width="1.6" stroke-linecap="round" />
    <path d="M6.003 5.125A3 3 0 0 0 6.401 6.5" stroke="url(#brainStroke)" stroke-width="1.5" stroke-linecap="round" />
    <path d="M3.477 10.896a4 4 0 0 1 .585-.396" stroke="url(#brainStroke)" stroke-width="1.5" stroke-linecap="round" />
    <path d="M6 18a4 4 0 0 1-1.967-.516" stroke="url(#brainStroke)" stroke-width="1.5" stroke-linecap="round" />
    <path d="M12 13h4" stroke="url(#brainStroke)" stroke-width="1.7" stroke-linecap="round" />
    <path d="M12 18h6a2 2 0 0 1 2 2v1" stroke="url(#brainStroke)" stroke-width="1.7" stroke-linecap="round" stroke-linejoin="round" />
    <path d="M12 8h8" stroke="url(#brainStroke)" stroke-width="1.7" stroke-linecap="round" />
    <path d="M16 8V5a2 2 0 0 1 2-2" stroke="url(#brainStroke)" stroke-width="1.7" stroke-linecap="round" stroke-linejoin="round" />
    <circle cx="16" cy="13" r="1.1" fill="#8ff7ff" />
    <circle cx="18" cy="3" r="1.1" fill="#8ff7ff" />
    <circle cx="20" cy="21" r="1.1" fill="#c4b5fd" />
    <circle cx="20" cy="8" r="1.1" fill="#c4b5fd" />
  </g>
</svg>
